<?xml version="1.0" encoding="UTF-8"?>
<svg id="_レイヤー_2" data-name="レイヤー 2" xmlns="http://www.w3.org/2000/svg" viewBox="0 0 124.84 128.31">
  <defs>
    <style>
      .cls-1 {
        fill: #e22a00;
      }
    </style>
  </defs>
  <g id="_レイヤー_1-2" data-name="レイヤー 1">
    <g>
      <path class="cls-1" d="M119.37,38.28c2.16-14.67-9.92-22.15-13.81-23.66C97.8-.05,79.01.73,74.07,3.84,68.68-.05,65.43,0,62.42,0s-6.26-.05-11.65,3.84C45.83.73,27.04-.05,19.28,14.62c-3.88,1.51-15.96,8.99-13.81,23.66-7.33,2.73-6.33,14.24-2.59,19.27h119.08c3.74-5.03,4.75-16.54-2.59-19.27ZM8.87,39.37c-.01.08-.04.16-.07.25-.03.08-.07.15-.12.22-.05.07-.1.14-.16.2s-.13.12-.2.16c-.07.05-.15.09-.23.12-.08.03-.16.06-.25.07-.08.02-.17.03-.26.03s-.17,0-.26-.03c-.08-.02-.16-.04-.25-.07-.08-.03-.15-.07-.22-.12-.07-.05-.14-.1-.2-.16-.06-.06-.11-.13-.16-.2-.05-.07-.09-.15-.12-.22-.03-.08-.06-.16-.07-.25-.01-.09-.02-.17-.02-.26,0-.35.14-.69.39-.93.3-.3.76-.44,1.18-.36.09.01.17.04.25.07.08.03.16.07.23.12.07.05.14.1.2.16.24.25.39.59.39.93,0,.09-.01.17-.03.26ZM12.87,40.43c-.72,0-1.31-.59-1.31-1.31s.59-1.32,1.31-1.32,1.31.59,1.31,1.32-.59,1.31-1.31,1.31ZM19.45,39.37c-.02.08-.04.16-.07.25-.03.08-.07.15-.12.22-.05.07-.1.14-.16.2s-.12.12-.2.16c-.07.05-.15.09-.22.12-.08.03-.16.06-.25.07-.09.02-.17.03-.26.03s-.17,0-.26-.03c-.08-.02-.17-.04-.25-.07-.08-.03-.15-.07-.22-.12-.07-.05-.14-.1-.2-.16-.06-.06-.12-.13-.16-.2-.05-.07-.09-.15-.12-.22-.03-.08-.06-.16-.07-.25-.02-.09-.02-.17-.02-.26,0-.35.14-.69.39-.93.06-.06.12-.11.2-.16.07-.05.15-.09.22-.12.08-.04.16-.06.25-.07.43-.09.88.05,1.18.36.25.25.39.59.39.93,0,.09,0,.17-.03.26ZM22.44,16.85c-.06.06-.12.11-.2.16-.07.05-.15.09-.22.12-.08.03-.16.06-.25.07-.09.02-.17.03-.26.03-.35,0-.69-.14-.93-.39-.25-.25-.39-.58-.39-.93,0-.09,0-.17.02-.26.02-.09.04-.17.07-.25.03-.08.07-.16.12-.23.05-.07.1-.14.16-.2.3-.3.76-.45,1.18-.36.08.02.17.04.25.08.08.03.15.07.22.12.07.05.14.1.2.16s.12.13.16.2.09.15.12.23c.03.08.06.16.07.25.02.08.02.17.02.26,0,.35-.14.69-.39.93ZM27.13,19.42c-.25.4-.68.62-1.12.62-.24,0-.48-.06-.7-.2-.61-.38-.8-1.19-.42-1.81.38-.62,1.19-.8,1.81-.42.62.39.8,1.2.42,1.81ZM31.44,22.46c-.25.24-.59.38-.93.38-.09,0-.17,0-.25-.03-.09-.02-.17-.04-.25-.07-.08-.03-.16-.07-.23-.12-.07-.05-.14-.1-.2-.16-.25-.25-.39-.59-.39-.93,0-.09.01-.17.03-.26.02-.08.04-.16.07-.25.04-.08.07-.15.12-.22.05-.07.1-.14.16-.2s.13-.12.2-.16.15-.09.23-.12c.08-.03.16-.06.24-.07.17-.03.35-.03.51,0,.09.02.17.04.25.07.08.03.16.07.23.12.07.05.14.1.2.16s.11.13.16.2c.05.07.09.15.12.22.03.08.06.16.07.25.01.09.02.17.02.26,0,.35-.14.69-.39.93ZM50.46,6.64c-.24-.25-.38-.59-.38-.93,0-.09,0-.17.02-.26.02-.09.04-.17.07-.25.03-.08.07-.16.12-.23.05-.07.1-.14.16-.2.31-.3.76-.45,1.19-.36.08.02.16.04.25.07.08.04.15.07.22.12.07.05.14.1.2.16s.12.13.16.2c.05.07.09.15.12.23.03.08.06.16.07.25.02.08.02.17.02.26,0,.35-.14.68-.39.93-.06.06-.13.11-.2.16-.07.05-.15.09-.22.12-.08.03-.16.06-.25.07-.09.01-.17.03-.26.03s-.17-.01-.26-.03c-.09-.02-.17-.04-.25-.07-.08-.04-.16-.07-.23-.12-.07-.05-.14-.1-.2-.16ZM50.85,9.77c-.14-.71.32-1.4,1.04-1.54.71-.14,1.4.32,1.54,1.04.14.71-.32,1.41-1.03,1.55-.09.02-.17.02-.26.02-.61,0-1.16-.44-1.29-1.06ZM53.82,14.26c-.06.06-.13.11-.2.16-.07.05-.15.09-.23.12-.08.04-.16.06-.25.07-.08.02-.17.03-.26.03s-.17-.01-.26-.03c-.08-.01-.16-.04-.24-.07-.08-.03-.16-.07-.23-.12-.07-.05-.14-.1-.2-.16-.25-.25-.39-.59-.39-.93,0-.09.01-.17.02-.26.02-.08.04-.16.07-.25.04-.08.07-.15.12-.22.05-.07.1-.14.16-.2s.13-.12.2-.16c.07-.05.15-.09.23-.12.08-.03.16-.06.24-.07.17-.03.35-.03.51,0,.09.02.17.04.25.07.08.03.16.07.23.12.07.05.14.1.2.16s.11.13.16.2c.05.07.09.15.12.22.03.08.06.16.07.25.01.09.03.17.03.26,0,.35-.14.69-.39.93ZM73.24,13.58c-.02.09-.04.17-.07.25s-.07.16-.12.23c-.05.07-.1.14-.16.2-.06.06-.13.11-.2.16-.07.05-.15.09-.22.12-.08.04-.16.06-.25.07-.09.02-.17.03-.26.03s-.17-.01-.26-.03c-.09-.01-.17-.04-.25-.07-.08-.03-.16-.07-.23-.12-.07-.05-.14-.1-.2-.16-.24-.25-.38-.59-.38-.93,0-.09,0-.17.02-.26.02-.08.04-.16.07-.25.03-.08.07-.15.12-.22.05-.07.1-.14.16-.2.31-.31.76-.45,1.19-.36.08.02.16.04.25.07.08.03.15.07.22.12.07.05.14.1.2.16.06.06.12.13.16.2.05.07.09.15.12.22.03.08.06.16.07.25.02.09.02.17.02.26s0,.17-.02.26ZM73.99,9.77c-.12.63-.67,1.06-1.29,1.06-.08,0-.17-.01-.25-.02-.71-.14-1.18-.83-1.04-1.55.14-.71.83-1.17,1.55-1.04.71.14,1.17.83,1.03,1.54ZM74.38,6.64c-.06.06-.13.11-.2.16-.07.05-.15.09-.23.12-.08.03-.16.06-.25.07-.08.01-.17.03-.25.03s-.17-.01-.26-.03c-.09-.02-.17-.04-.25-.07-.08-.04-.16-.07-.23-.12-.07-.05-.14-.1-.2-.16-.24-.25-.39-.59-.39-.93,0-.09.01-.17.03-.26.01-.09.04-.17.07-.25.03-.08.07-.16.12-.23.05-.07.1-.14.16-.2.25-.24.58-.39.93-.39s.69.14.93.39c.06.06.11.13.16.2.05.07.09.15.12.23.03.08.06.16.08.25.01.08.02.17.02.26,0,.34-.14.68-.39.93ZM95.26,22.46c-.06.06-.12.11-.2.16-.07.05-.15.09-.22.12-.08.03-.16.06-.25.07-.09.02-.17.03-.26.03s-.17,0-.26-.03c-.08-.02-.17-.04-.25-.07s-.16-.07-.22-.12c-.07-.05-.14-.1-.2-.16-.24-.25-.38-.59-.38-.93,0-.09,0-.17.02-.26.02-.08.04-.16.07-.25.03-.08.07-.15.12-.22.05-.07.1-.14.16-.2.25-.25.59-.39.93-.39s.69.14.93.39c.06.06.12.13.16.2.05.07.09.15.12.22.03.08.06.16.08.25.02.09.02.17.02.26,0,.35-.14.69-.39.93ZM99.52,19.84c-.22.14-.46.2-.69.2-.44,0-.87-.22-1.12-.62-.39-.62-.2-1.43.42-1.81.62-.38,1.43-.2,1.81.42.38.62.2,1.43-.42,1.81ZM104.26,16.85c-.25.25-.59.39-.93.39-.09,0-.17,0-.26-.03-.08-.02-.16-.04-.25-.07-.08-.04-.15-.07-.22-.12-.07-.05-.14-.1-.2-.16-.25-.25-.39-.58-.39-.93,0-.09,0-.17.03-.26.02-.09.04-.17.07-.25.04-.08.07-.16.12-.23.05-.07.1-.14.16-.2s.13-.11.2-.16c.07-.05.15-.09.22-.12.08-.04.16-.06.25-.08.43-.09.88.06,1.19.36.06.06.11.13.16.2.05.07.09.15.12.23.04.08.06.16.08.25.01.08.03.17.03.26,0,.35-.14.68-.39.93ZM107.97,39.37c-.01.08-.04.16-.07.25-.03.08-.07.15-.12.22-.05.07-.1.14-.16.2s-.13.12-.2.16-.15.09-.23.12c-.08.03-.16.06-.25.07s-.17.03-.26.03-.17,0-.26-.03c-.08-.02-.16-.04-.25-.07-.08-.03-.15-.07-.22-.12s-.14-.1-.2-.16-.12-.13-.16-.2c-.05-.07-.09-.15-.12-.22-.03-.08-.06-.16-.07-.25-.02-.09-.03-.17-.03-.26,0-.35.14-.69.39-.93s.58-.39.93-.39.69.14.93.39c.24.25.39.59.39.93,0,.09-.01.17-.03.26ZM111.97,40.43c-.72,0-1.31-.59-1.31-1.31s.59-1.32,1.31-1.32,1.31.59,1.31,1.32-.59,1.31-1.31,1.31ZM118.54,39.37c-.02.08-.04.16-.07.25-.03.08-.07.15-.12.22-.05.07-.1.14-.16.2s-.12.12-.2.16c-.07.05-.15.09-.23.12-.08.03-.16.06-.25.07-.09.02-.17.03-.26.03s-.17,0-.26-.03c-.08-.02-.17-.04-.25-.07s-.16-.07-.22-.12c-.07-.05-.14-.1-.2-.16s-.12-.13-.16-.2c-.05-.07-.09-.15-.12-.22-.03-.08-.06-.16-.07-.25-.02-.09-.03-.17-.03-.26,0-.35.14-.69.39-.93.06-.06.13-.11.2-.16.07-.05.15-.09.23-.12.08-.04.16-.06.25-.07.17-.04.34-.04.51,0,.08.01.17.04.25.07.08.03.15.07.23.12.07.05.14.1.2.16.25.25.39.59.39.93,0,.09,0,.17-.03.26Z"/>
      <g>
        <g>
          <path class="cls-1" d="M1,91.11c-.16-.69.31-1.44,1.03-1.69,2.1-.75,4.51-2.44,5.79-4.07.47-.6,1.28-.75,1.88-.31.66.47.85,1.38.38,2-1.57,2.07-4.7,4.2-7.45,5.11-.72.25-1.47-.25-1.63-1.03ZM8.77,91.93c0-.75.66-1.32,1.41-1.22,6.11.56,6.83-2.57,4.7-5.2-1.66-2.1-6.61-2.32-4.7-7.89.25-.75,1.06-1.16,1.85-.94.69.22,1.06.97.85,1.72-1.35,4.07,2.6,1.94,5.11,6.83,2.22,5.39-1.1,8.86-7.86,8.27-.78-.06-1.38-.75-1.35-1.57ZM15.85,75.55c-1-1.6-2.69-2.94-4.45-3.54-.75-.28-1.13-1.03-.88-1.72.31-.78,1.13-1.22,1.91-.94,2.29.81,4.45,2.57,5.73,4.6.41.66.19,1.57-.47,2.04-.6.41-1.41.22-1.85-.44ZM24.56,90.96c-.78-2.41-2.38-4.01-4.73-4.7-.72-.22-1.19-.97-1-1.66.22-.81,1.03-1.28,1.79-1.06,3.29.91,5.7,3.32,6.73,6.77.25.75-.25,1.53-1.03,1.72-.75.16-1.5-.31-1.75-1.06Z"/>
          <path class="cls-1" d="M47.61,93.62c-4.1-9.68-7.61-9.74-7.61-13,0-2.54,3.85-3.98,7.02-11.12.31-.72,1.16-1.06,1.88-.72.72.31,1.06,1.19.75,1.91-1.82,4.1-3.6,6.17-5.7,8.46-1.53,1.72-1.5,1.69.09,3.45,2.41,2.6,4.48,5.32,6.26,9.9.28.75-.09,1.6-.81,1.91-.75.31-1.6-.06-1.88-.78Z"/>
          <path class="cls-1" d="M81.05,94.12c-1.88-.09-3.29-.72-4.32-1.85-.5-.56-.41-1.41.19-1.94.5-.44,1.28-.41,1.85.06,2.88,2.35,7.49.25,6.92-3.07-.75-4.35-5.98-5.42-11.68-2.44.03,2.13-.06,4.29-.25,6.33-.34,2.69-2.07,3.51-4.98,2.38-3.29-1.38-5.67-3.35-1.22-7.39,1.22-1.1,2.47-2.04,3.73-2.82-.03-1.82-.13-3.57-.28-5.23-1.79.31-3.6.53-5.48.63-.75.03-1.38-.56-1.38-1.32-.03-.72.56-1.35,1.28-1.38,1.82-.09,3.6-.28,5.26-.63-.25-1.82-.56-3.45-.91-4.76-.19-.72.22-1.44.94-1.63.72-.16,1.5.25,1.69,1,.34,1.28.66,2.94.91,4.79,1.03-.28,2-.6,2.91-.97.69-.28,1.47.03,1.79.69.31.69,0,1.47-.69,1.75-1.16.47-2.41.88-3.7,1.22.12,1.41.25,2.91.31,4.45,3.16-1.38,6.36-1.75,9.15-1,8.21,2.22,6.48,13.59-2.04,13.12ZM71.12,90.52c.06-.81.13-2.51.16-3.95-1.06.75-1.97,1.53-2.69,2.29-1.1,1.1-.85,1.28-.06,1.66,2.72,1.41,2.51,1.32,2.6,0ZM89.41,79.62c-.44.6-1.25.69-1.85.25-1.6-1.13-3.63-1.82-5.83-2-.72-.06-1.28-.69-1.25-1.41.06-.75.72-1.35,1.47-1.28,2.69.19,5.26,1.1,7.17,2.51.63.44.72,1.32.28,1.94Z"/>
          <path class="cls-1" d="M115.11,80.21c-.25,3.29-1,6.92-1.44,8.46-1.25,4.35-4.17,5.48-8.49,3.29-.66-.34-.91-1.19-.53-1.88.34-.66,1.16-.91,1.85-.53,3.95,2.1,4.86.72,5.95-9.58.13-1.16.13-3.23-4.64-2.25-1.44,5.7-3.73,11.59-6.51,15.85-.41.63-1.25.78-1.88.34-.56-.44-.72-1.28-.31-1.88,2.66-4.04,4.64-8.89,5.92-13.75-1.32.19-2.57.25-4.13.13-.72-.03-1.25-.69-1.19-1.47.09-.72.75-1.22,1.5-1.19,1.63.16,2.82.09,4.48-.22.38-1.88.66-3.76.85-5.54.06-.72.72-1.25,1.44-1.22.72.06,1.28.72,1.22,1.47-.16,1.53-.44,3.13-.78,4.79,6.51-.85,6.89,3.19,6.7,5.2ZM123.76,88.36c-.78.25-1.6-.22-1.82-1-1.13-4.1-3.51-7.96-5.76-10.37-.56-.63-.5-1.53.09-2.04.69-.56,1.66-.5,2.22.16,2.25,2.69,5.14,7.8,6.26,11.31.28.75-.19,1.63-1,1.94Z"/>
        </g>
        <g>
          <path class="cls-1" d="M72.26,126.56c0,.97-.78,1.75-1.75,1.75s-1.77-.78-1.77-1.75v-15.43c0-1.48,1.21-2.69,2.69-2.69h7.9c1.48,0,2.69,1.21,2.69,2.69v.94c0,.97-.81,1.75-1.77,1.75s-1.75-.78-1.75-1.75v-.13h-6.24v4.09h6.51c.97,0,1.77.78,1.77,1.75s-.81,1.75-1.77,1.75h-6.51v7.04Z"/>
          <path class="cls-1" d="M90.56,128.04c-1.48,0-2.69-1.21-2.69-2.69v-14.22c0-1.48,1.21-2.69,2.69-2.69h8.15c1.48,0,2.69,1.21,2.69,2.69v1.05c0,.97-.81,1.75-1.77,1.75s-1.75-.78-1.75-1.75v-.24h-6.48v4.09h7.12c.97,0,1.75.78,1.75,1.77s-.78,1.75-1.75,1.75h-7.12v5.03h6.48v-.22c0-.97.78-1.75,1.75-1.75s1.77.78,1.77,1.75v.99c0,1.48-1.21,2.69-2.69,2.69h-8.15Z"/>
          <path class="cls-1" d="M112.18,128.06c-.99,0-1.94-.4-2.61-1.08l-1.29-1.29c-.81-1.05-1.08-1.77-1.08-2.61v-1.32c0-.97.78-1.75,1.75-1.75s1.77.78,1.77,1.75c0,.03-.03.43-.03.46.03,1.1.13,1.05.97,1.88,0,.03.62.43.99.43h3.66c.38,0,.73-.13.97-.4.19-.19.4-.35.56-.56.35-.4.4-.62.4-.97v-.62c0-.94-.51-1.16-1.26-1.4l-7.34-2.42c-1.08-.35-2.2-.99-2.2-3.04v-1.75c0-.99.38-1.91,1.08-2.61l1.34-1.26c.67-.7,1.64-1.08,2.63-1.08h4.17c.97,0,2.02.38,2.72,1.08l1.26,1.26c.7.7,1.05,1.42,1.08,2.61v1.05c0,.97-.78,1.75-1.75,1.75s-1.75-.78-1.75-1.75v-.56c0-.35-.16-.7-.4-.97l-.56-.56c-.27-.27-.62-.4-.99-.4-.94,0-2.5-.03-3.47-.03-.35,0-.62.05-.94.4-.11.16-.3.3-.56.59-.46.48-.35.78-.35,1.45,0,.35.24.65.56.75l8.25,2.8c1.13.38,2.02,1.69,2.02,2.61v2.58c0,.99-.4,1.91-1.08,2.61l-1.29,1.29c-.7.67-1.61,1.08-2.58,1.08h-4.65Z"/>
        </g>
        <g>
          <path class="cls-1" d="M1.92,107.74c-.66.41-1.5.13-1.82-.6-.28-.69,0-1.53.69-1.94,1.69-.97,3.66-2.54,5.04-3.82.72-.66,1.88-.66,2.63.06.94.88,1.82,1.6,2.98,2.22.63.38.91,1.13.66,1.79-.25.69-1.03.97-1.66.63-1.38-.72-2.22-1.38-3.23-2.26-.75.66-1.57,1.32-2.38,1.94h4.38c.63,0,1.13.5,1.13,1.13s-.5,1.1-1.13,1.1h-4.57c-.63,0-1.13-.5-1.13-1.1v-.19c-.53.38-1.06.72-1.6,1.03ZM10.13,125.84h-5.7v.88c0,.69-.56,1.28-1.28,1.28s-1.32-.6-1.32-1.28v-15.54c0-1.03.88-1.91,1.91-1.91h6.17c1.03,0,1.91.88,1.91,1.91v5.79c0,1.03-.88,1.91-1.91,1.91h-5.48v1h5.98c.66,0,1.22.56,1.22,1.25s-.56,1.22-1.22,1.22h-5.98v1.03h5.7c.66,0,1.22.56,1.22,1.22s-.56,1.22-1.22,1.22ZM9.35,111.62h-4.92v1.28h4.92v-1.28ZM4.43,116.54h4.92v-1.28h-4.92v1.28ZM27.86,127.12c-.22.69-1,1-1.6.66-2.32-1.22-4.57-3.19-6.51-5.54-1.88,2.22-4.26,4.26-7.17,5.54-.66.31-1.44-.03-1.72-.75-.25-.66.06-1.44.75-1.75,2.69-1.28,4.85-3.13,6.51-5.2-1.28-1.88-2.32-3.92-3.01-5.95-.25-.72.16-1.5.85-1.79.69-.28,1.44.09,1.66.78.5,1.6,1.22,3.16,2.1,4.64.97-1.6,1.69-3.23,2.16-4.79.22-.72.97-1.1,1.63-.85.09.03.22.09.28.16-.91-1-1.72-2.1-2.29-3.07-.34-.6-.13-1.38.53-1.72.63-.34,1.38-.13,1.79.47.91,1.44,2.22,2.98,3.29,3.85.6.47.81,1.22.56,1.85-.28.66-1.1.94-1.69.53-.6-.41-1.16-.91-1.72-1.44.19.31.25.72.13,1.13-.6,1.85-1.6,4.07-3.04,6.2,1.66,2.1,3.66,3.92,5.86,5.23.63.38.91,1.16.66,1.82ZM17.21,107.45c.69.38.94,1.16.6,1.82-.94,1.72-2.22,3.26-3.88,4.54-.6.47-1.44.31-1.88-.34-.38-.56-.22-1.38.38-1.85,1.25-.94,2.29-2.22,3.07-3.57.34-.63,1.1-.91,1.72-.6ZM13.39,107.3c-.72,0-1.32-.56-1.32-1.32s.6-1.32,1.32-1.32h4.95v-2.76c0-.75.63-1.38,1.38-1.38s1.35.63,1.35,1.38v2.76h5.11c.72,0,1.32.6,1.32,1.32s-.6,1.32-1.32,1.32h-12.78Z"/>
          <path class="cls-1" d="M59.97,112.84c.75,0,1.35.6,1.35,1.38,0,.72-.6,1.35-1.35,1.35h-10.62v8.33c0,3.13-1.97,4.2-7.08,3.95-.78-.06-1.35-.72-1.35-1.47.03-.75.69-1.35,1.44-1.32,3.66.16,4.23-.06,4.23-1.16v-8.33h-10.74c-.75,0-1.35-.6-1.35-1.35s.6-1.38,1.35-1.38h10.74v-2.69c0-.75.63-1.38,1.38-1.38.31,0,.63.13.88.31,1.88-1.25,3.41-2.73,4.57-4.39h-13.72c-.75,0-1.38-.6-1.38-1.38,0-.72.6-1.35,1.38-1.35h16.22c1.03,0,1.72,1.06,1.25,1.97-1.79,3.26-4.92,6.42-7.83,8.02v.88h10.62Z"/>
        </g>
      </g>
    </g>
  </g>
</svg>